HIERARCHY
ROOT Hips
{
  OFFSET 3.13124 94.3669 -3.18751
  CHANNELS  6 Xposition Yposition Zposition Zrotation Xrotation Yrotation
  JOINT LeftUpLeg
  {
    OFFSET 8.64259 1.95398 -2.38835
    CHANNELS 3 Zrotation Xrotation Yrotation
    JOINT LeftLeg
    {
      OFFSET 43.7702 0 0
      CHANNELS 3 Zrotation Xrotation Yrotation
      JOINT LeftFoot
      {
        OFFSET 40.6238 0 0
        CHANNELS 3 Zrotation Xrotation Yrotation
        JOINT LeftToeBase
        {
          OFFSET 12.7242 0 0
          CHANNELS 3 Zrotation Xrotation Yrotation
          End Site
          {
            OFFSET 0 0 0
          }
        }
      }
    }
  }
  JOINT RightUpLeg
  {
    OFFSET -8.2249 1.95398 -2.59336
    CHANNELS 3 Zrotation Xrotation Yrotation
    JOINT RightLeg
    {
      OFFSET 43.5653 0 0
      CHANNELS 3 Zrotation Xrotation Yrotation
      JOINT RightFoot
      {
        OFFSET 40.6238 0 0
        CHANNELS 3 Zrotation Xrotation Yrotation
        JOINT RightToeBase
        {
          OFFSET 12.7242 0 0
          CHANNELS 3 Zrotation Xrotation Yrotation
          End Site
          {
            OFFSET 0 0 0
          }
        }
      }
    }
  }
  JOINT Spine
  {
    OFFSET 0.165834 0.87714 6.61349
    CHANNELS 3 Zrotation Xrotation Yrotation
    JOINT Spine1
    {
      OFFSET 7.38962 1.71661e-005 0
      CHANNELS 3 Zrotation Xrotation Yrotation
      JOINT Spine2
      {
        OFFSET 11.9445 1.14441e-005 0
        CHANNELS 3 Zrotation Xrotation Yrotation
        JOINT Spine3
        {
          OFFSET 14.7254 4.19617e-005 0
          CHANNELS 3 Zrotation Xrotation Yrotation
          JOINT Spine4
          {
            OFFSET 10.9679 0 0
            CHANNELS 3 Zrotation Xrotation Yrotation
            JOINT RightShoulder
            {
              OFFSET 2.46616 -1.6653 3.69651
              CHANNELS 3 Zrotation Xrotation Yrotation
              JOINT RightArm
              {
                OFFSET 13.0012 0 0
                CHANNELS 3 Zrotation Xrotation Yrotation
                JOINT RightForeArm
                {
                  OFFSET 28.7848 1.52588e-005 0
                  CHANNELS 3 Zrotation Xrotation Yrotation
                  JOINT RightHand
                  {
                    OFFSET 26.5688 1.52588e-005 0
                    CHANNELS 3 Zrotation Xrotation Yrotation
                    End Site
                    {
                      OFFSET 0 0 0
                    }
                  }
                }
              }
            }
            JOINT LeftShoulder
            {
              OFFSET 2.38034 -1.29275 -3.75231
              CHANNELS 3 Zrotation Xrotation Yrotation
              JOINT LeftArm
              {
                OFFSET 16.3182 6.10352e-005 0
                CHANNELS 3 Zrotation Xrotation Yrotation
                JOINT LeftForeArm
                {
                  OFFSET 27.0901 0 0
                  CHANNELS 3 Zrotation Xrotation Yrotation
                  JOINT LeftHand
                  {
                    OFFSET 24.5451 1.52588e-005 0
                    CHANNELS 3 Zrotation Xrotation Yrotation
                    End Site
                    {
                      OFFSET 0 0 0
                    }
                  }
                }
              }
            }
            JOINT Neck
            {
              OFFSET 5.0226 -0.0266342 0
              CHANNELS 3 Zrotation Xrotation Yrotation
              JOINT Head
              {
                OFFSET 6.69363 2.86102e-005 0
                CHANNELS 3 Zrotation Xrotation Yrotation
                End Site
                {
                  OFFSET 0 0 0
                }
              }
            }
          }
        }
      }
    }
  }
}
MOTION
Frames:	5
Frame Time:	0.0333333
-1.13765 96.7989 -17.6849 99.839 -89.9953 99.9499 -171.024 2.919 90.4809 -9.61224 8.58007 3.45274 63.7276 0.480622 0.212242 28.7808 6.13379e-006 6.40108e-006 -179.476 2.05818 91.2283 -7.91972 0.711669 0.0372834 62.896 -1.13725 -0.572395 28.7808 1.38446e-005 2.45879e-005 0.00928556 6.33955 -90.1123 14.1949 0.0007466 0.00553813 2.52391 0.000747129 0.00652418 -20.0112 0.000702898 -0.00295312 0.00139943 0.000703197 -0.00295902 100.923 -18.8771 -85.2271 5.6158 43.0045 -32.8728 -0.104286 0.499091 -5.53019 -5.37983 -0.320009 -0.0162353 -79.0345 -22.0267 94.2311 6.7357 -42.3144 -24.5436 0.947541 44.4259 -2.02337 -0.356292 -0.027714 -1.19896 1.74147 -0.00204973 -0.00593319 -7.40369 -0.00138913 0.00234602 
-1.1348 96.8001 -17.6913 113.153 -89.9713 113.229 -171.032 2.96746 90.4494 -9.72651 8.63478 3.48246 63.7153 0.365509 0.143888 28.7808 6.13379e-006 6.40108e-006 -179.5 2.34171 91.1941 -8.52159 0.711577 0.0372834 63.1644 -1.16983 -0.596901 28.7808 1.38446e-005 2.45879e-005 0.0123183 6.32854 -90.0874 14.2169 0.0110099 0.00553813 2.5459 0.0110136 0.00652418 -19.9892 0.0103755 -0.00295312 0.0234036 0.0103646 -0.00295902 100.924 -18.827 -85.2425 5.65086 43.0148 -32.8067 -0.136935 0.499134 -5.47963 -5.37983 -0.320009 -0.0162353 -79.0661 -22.0042 94.1477 6.66998 -42.2489 -24.6602 0.770401 44.0948 -1.96232 -0.309017 -0.0277171 -0.849857 1.56599 -0.0321226 -0.0931581 -7.31196 -0.0213866 0.0332028 
-1.12667 96.7756 -17.7106 89.3463 -89.8965 89.4258 -171.067 2.98018 90.4284 -9.68737 8.68493 3.50336 63.7412 0.502266 0.224432 28.7808 6.13379e-006 6.40108e-006 -179.513 2.4909 91.1986 -8.7763 0.759537 0.0372838 63.2429 -1.21251 -0.621119 28.7808 1.38446e-005 2.45879e-005 0.00702129 6.32087 -90.1057 14.2322 -0.00260588 0.00553813 2.56127 -0.00252341 0.00652418 -19.9739 -0.00296218 -0.00295312 0.0387641 -0.00296199 -0.00295902 100.941 -18.748 -85.2232 5.72413 42.9441 -32.8626 -0.117718 0.499179 -5.42444 -5.37983 -0.320009 -0.0162353 -79.0692 -21.9359 94.1206 6.45713 -42.2135 -24.867 0.687393 43.8257 -1.861 -0.208119 -0.0277166 -0.917745 1.69545 -0.0204222 -0.0683827 -7.56799 -0.00714138 -0.0313068 
-1.12784 96.7719 -17.7125 111.518 -89.9011 111.616 -171.062 2.90977 90.4525 -9.63341 9.09407 3.7072 63.7395 0.287048 0.102114 28.7808 6.13379e-006 6.40108e-006 -179.502 2.36051 91.2173 -8.58928 0.781766 0.037284 63.2039 -1.1927 -0.608632 28.7808 1.38446e-005 2.45879e-005 0.00649624 6.31883 -90.1141 14.2363 -0.00535483 0.00553813 2.56535 -0.00542363 0.00652418 -19.9698 -0.00467919 -0.00284233 0.0428397 -0.00467683 -0.00284725 100.917 -18.7287 -85.2493 5.71803 42.8953 -32.8906 -0.0754504 0.499166 -5.4412 -5.37983 -0.320009 -0.0162353 -79.1056 -21.8884 94.0678 6.40221 -42.1826 -24.9498 0.662041 43.7879 -1.80093 -0.189205 -0.0277132 -1.27942 1.76003 -0.0244993 -0.0956536 -7.6626 -0.00841052 -0.0209557 
-1.12765 96.787 -17.7261 127.067 -89.8646 127.16 -171.044 2.89695 90.4574 -9.68221 9.04568 3.67045 63.7302 0.268177 0.0903723 28.7808 6.13379e-006 6.40108e-006 -179.495 2.23326 91.2097 -8.41751 0.81266 0.0372843 63.153 -1.09919 -0.554619 28.7808 1.38446e-005 2.45879e-005 -0.0036746 6.30743 -90.1054 14.2591 -0.0232686 0.00467277 2.58817 -0.0230089 0.00565658 -19.947 -0.0237768 -0.00200714 0.0656714 -0.0237631 -0.00199844 100.838 -18.654 -85.4652 5.71063 42.8782 -32.789 -0.0763299 0.499186 -5.41635 -5.37983 -0.320009 -0.0162353 -79.1448 -21.714 93.9568 6.32834 -42.121 -24.8905 0.611561 43.7356 -1.72621 0.0416873 -0.027709 -1.61948 1.5172 -0.00754079 -0.159368 -7.44745 0.0178121 0.0158411 
